<?xml version="1.0" standalone="no"?>
<!DOCTYPE svg PUBLIC "-//W3C//DTD SVG 20010904//EN"
 "http://www.w3.org/TR/2001/REC-SVG-20010904/DTD/svg10.dtd">
<svg version="1.0" xmlns="http://www.w3.org/2000/svg"
 width="2250.000000pt" height="2250.000000pt" viewBox="0 0 2250.000000 2250.000000"
 preserveAspectRatio="xMidYMid meet">
<metadata>
Created by potrace 1.14, written by Peter Selinger 2001-2017
</metadata>
<g transform="translate(0.000000,2250.000000) scale(0.100000,-0.100000)"
fill="#000000" stroke="none">
<path d="M11025 21454 c-33 -13 -148 -56 -255 -95 -107 -39 -204 -74 -215 -79
-56 -24 -206 -80 -214 -80 -5 0 -22 -6 -38 -14 -15 -8 -59 -27 -98 -41 -38
-15 -83 -33 -100 -40 -16 -7 -48 -20 -70 -29 -267 -110 -621 -301 -815 -441
-47 -33 -91 -65 -99 -69 -14 -9 -14 0 7 184 4 36 7 97 7 137 0 61 -4 75 -23
96 -52 56 -144 12 -303 -143 -203 -199 -285 -273 -374 -341 -126 -98 -209
-131 -284 -117 -25 5 -59 11 -76 14 -16 3 -66 7 -111 9 -322 11 -671 -175
-898 -480 -82 -110 -124 -186 -173 -315 -13 -36 -28 -68 -32 -72 -23 -25 -360
-26 -481 -3 -51 10 -185 19 -267 18 -167 -2 -244 -37 -433 -197 -166 -140
-328 -285 -506 -451 -337 -315 -1181 -1161 -1228 -1231 -18 -27 -41 -67 -50
-89 -10 -22 -22 -49 -27 -60 -5 -11 -32 -87 -60 -170 -77 -226 -118 -315 -187
-400 -158 -195 -363 -405 -657 -671 -275 -249 -552 -522 -666 -659 -205 -245
-335 -455 -459 -744 -88 -206 -194 -533 -235 -726 -3 -11 -16 -72 -30 -135
-14 -63 -28 -131 -31 -150 -2 -19 -6 -42 -9 -50 -4 -13 -23 -119 -41 -225 -2
-16 -7 -37 -9 -45 -2 -8 -7 -35 -10 -60 -3 -25 -8 -56 -10 -70 -8 -44 -14 -84
-20 -130 -3 -25 -7 -52 -10 -60 -2 -8 -7 -40 -10 -70 -3 -30 -8 -62 -10 -70
-2 -8 -7 -37 -10 -64 -3 -27 -10 -79 -15 -115 -22 -139 -30 -187 -34 -216 -2
-16 -9 -59 -15 -95 -5 -36 -13 -85 -16 -110 -4 -24 -8 -47 -10 -50 -1 -3 -6
-25 -9 -50 -3 -25 -8 -54 -10 -65 -50 -262 -48 -244 -28 -278 58 -97 256 -488
342 -677 156 -341 311 -761 374 -1017 8 -32 27 -105 41 -163 24 -94 67 -300
79 -375 20 -124 24 -154 21 -185 -9 -115 -102 -163 -229 -120 -16 6 -31 9 -33
7 -5 -6 -3 -444 2 -517 5 -56 21 -174 29 -205 2 -5 6 -23 10 -40 17 -66 92
-257 162 -413 13 -29 24 -55 24 -57 0 -2 11 -28 24 -57 13 -29 38 -87 56 -128
17 -41 45 -103 61 -138 16 -34 29 -64 29 -66 0 -4 24 -59 80 -181 30 -66 126
-281 250 -560 375 -843 552 -1290 751 -1891 l33 -102 41 -5 c70 -10 130 -43
192 -104 86 -86 139 -201 158 -343 3 -25 8 -52 10 -60 2 -8 7 -28 10 -45 2
-16 7 -39 10 -50 2 -11 9 -40 15 -65 60 -248 179 -536 298 -720 84 -129 233
-297 338 -380 88 -70 237 -153 351 -196 163 -62 193 -66 523 -69 168 -2 330
-6 360 -9 199 -24 373 -100 510 -225 142 -130 391 -253 639 -316 63 -16 77
-19 156 -30 22 -3 52 -8 67 -11 37 -8 287 -8 295 -1 5 6 77 -30 338 -168 44
-23 188 -98 320 -165 512 -262 727 -383 993 -562 64 -43 77 -48 116 -45 58 6
96 26 123 65 l22 33 16 -25 c13 -20 16 -49 15 -148 -1 -68 -2 -129 -1 -136 1
-9 12 -11 41 -7 21 3 54 8 72 10 18 2 53 7 78 10 25 3 63 7 85 10 22 2 56 6
75 9 19 3 80 10 135 16 55 6 118 12 140 15 22 2 72 7 110 11 39 3 84 8 100 9
17 2 71 6 120 10 50 3 108 8 130 10 237 24 877 24 1115 0 19 -2 67 -6 106 -10
39 -3 80 -7 90 -9 11 -2 42 -7 69 -10 157 -20 527 -101 615 -134 19 -7 46 -3
105 14 97 29 143 35 260 38 210 6 458 -73 743 -236 46 -27 86 -48 88 -48 2 0
23 -12 45 -27 62 -41 254 -62 307 -34 37 20 40 76 7 178 -7 21 1 27 86 68 118
56 336 117 539 151 14 3 69 14 122 26 150 33 188 15 316 -151 77 -101 143
-166 192 -191 45 -23 116 -37 106 -22 -11 18 -9 276 3 333 38 180 138 214 538
185 l62 -4 -2 176 c-1 171 -1 179 23 225 15 28 83 107 165 190 77 78 178 185
225 237 121 137 345 358 415 411 33 25 91 65 128 89 l68 43 36 -39 c20 -22 64
-70 99 -109 35 -38 90 -99 123 -134 60 -64 60 -64 67 -37 16 67 -15 197 -79
323 -15 28 -71 99 -126 158 -55 59 -104 120 -110 136 -17 49 6 63 219 133 185
61 200 64 280 62 93 -2 155 -26 228 -86 20 -17 40 -30 44 -30 4 0 -9 30 -29
66 -59 108 -51 154 35 213 72 50 135 63 317 65 152 3 176 5 223 26 58 25 134
101 158 159 27 63 53 177 56 248 2 37 5 70 8 73 9 8 391 469 456 550 295 367
580 799 832 1260 101 184 288 561 356 715 27 61 60 135 73 165 52 116 187 444
228 557 19 51 39 102 45 113 21 40 1 33 -77 -26 -249 -188 -439 -391 -633
-682 -83 -123 -116 -164 -154 -189 -64 -44 -114 -44 -180 -2 -27 16 -49 29
-50 27 -3 -5 -78 -240 -80 -252 -5 -24 -58 -186 -61 -186 -2 0 -2 15 0 33 3
30 6 61 20 245 4 39 3 72 0 72 -6 0 -88 -62 -180 -135 -60 -48 -185 -145 -430
-333 -137 -106 -258 -199 -267 -207 -9 -8 -198 -150 -420 -315 -222 -166 -410
-307 -418 -313 -63 -49 -729 -528 -874 -628 -43 -30 -122 -84 -175 -121 -117
-82 -675 -456 -786 -527 -44 -28 -87 -56 -95 -61 -231 -156 -351 -194 -457
-145 -54 25 -114 87 -146 153 -19 38 -40 54 -49 34 -1 -4 -57 -54 -122 -110
-157 -135 -220 -153 -267 -79 -17 27 -20 44 -16 102 3 39 8 78 12 88 6 15 4
16 -21 7 -35 -14 -94 -15 -164 -5 -150 21 -194 -4 -250 -147 -38 -99 -58 -99
-110 -2 -34 64 -61 91 -79 80 -5 -3 -12 -32 -17 -63 -4 -32 -8 -60 -9 -63 -1
-3 -5 -30 -9 -60 -9 -58 -9 -60 -22 -130 l-8 -45 -7 58 c-9 76 -37 110 -80 95
-38 -13 -93 -76 -126 -143 l-27 -54 -72 109 c-93 141 -166 230 -242 295 l-23
19 24 -49 c45 -89 74 -219 61 -271 -9 -36 -40 -30 -83 18 l-38 41 -8 -84 c-4
-46 -9 -93 -11 -104 -1 -11 -4 -37 -5 -58 -2 -35 -7 -40 -47 -60 -26 -12 -90
-65 -154 -128 -59 -59 -124 -114 -143 -123 -18 -9 -60 -19 -92 -21 -32 -3 -87
-7 -123 -10 -83 -7 -178 -16 -210 -20 -14 -2 -50 -7 -80 -10 -30 -4 -62 -9
-70 -10 -8 -2 -44 -6 -80 -10 -36 -4 -67 -8 -70 -10 -3 -2 -26 -6 -50 -10 -74
-10 -317 -62 -435 -93 l-110 -28 -135 33 c-136 34 -156 39 -375 88 -146 33
-152 34 -190 41 -16 3 -61 11 -100 19 -161 32 -366 69 -445 80 -67 9 -103 15
-120 20 -8 2 -40 7 -70 10 -30 3 -64 8 -75 10 -11 2 -42 7 -70 10 -27 4 -63 8
-80 11 -16 2 -52 6 -80 9 -27 3 -61 8 -75 10 -39 6 -166 20 -285 30 -38 4 -86
8 -105 10 -34 3 -105 9 -255 21 -149 11 -346 36 -415 52 -19 5 -38 9 -43 10
-25 5 -70 15 -127 28 -36 9 -72 17 -81 19 -9 2 -39 11 -65 20 -27 9 -56 18
-64 20 -150 34 -620 252 -830 385 -8 5 -38 23 -67 39 -56 33 -73 51 -48 51 26
0 93 38 136 77 80 73 116 176 89 258 l-13 38 -13 -31 c-28 -67 -114 -122 -229
-147 -15 -4 -167 -35 -195 -40 -94 -18 -79 -25 -187 82 -154 151 -355 345
-508 488 -76 72 -150 141 -165 155 -146 137 -283 265 -320 298 -25 22 -65 59
-90 83 -99 93 -191 179 -299 279 -170 157 -176 163 -320 299 -431 405 -930
904 -1181 1181 -47 52 -95 105 -107 117 -12 13 -78 88 -146 167 -111 128 -164
199 -235 317 -25 41 -162 314 -162 323 0 3 -14 36 -31 73 -17 38 -63 147 -101
243 -38 96 -76 189 -83 205 -7 17 -20 48 -28 70 -20 55 -104 259 -132 320 -42
93 -88 190 -91 194 -2 2 -23 -17 -48 -42 -79 -82 -134 -76 -208 23 -39 51 -81
166 -82 219 -1 103 78 189 159 171 32 -7 91 -43 108 -65 4 -5 5 6 3 25 -11 68
-18 115 -21 135 -1 11 -6 47 -10 80 -3 33 -8 71 -11 85 -5 32 -23 155 -29 200
-3 19 -7 46 -9 60 -3 14 -8 45 -11 70 -7 54 -15 114 -21 155 -3 17 -7 46 -9
65 -3 19 -7 46 -9 59 -3 13 -8 49 -12 80 -3 31 -8 64 -10 74 -1 10 -10 70 -19
135 -9 64 -19 128 -21 142 -3 14 -7 68 -9 121 -6 129 15 201 115 404 79 160
118 247 126 275 18 73 24 105 29 163 4 38 8 76 10 87 2 10 6 51 10 92 3 40 8
84 10 98 2 14 7 48 9 75 3 28 8 75 11 105 3 30 8 69 10 85 2 17 7 57 10 90 3
33 7 71 10 85 2 14 7 55 10 92 3 37 7 75 9 85 2 10 7 56 11 103 4 47 8 87 10
90 2 3 6 41 9 85 4 44 9 87 11 95 2 8 6 47 10 85 3 39 8 86 10 105 2 19 7 60
10 90 3 30 8 69 9 85 8 61 19 161 21 185 4 39 25 231 30 275 2 22 7 60 10 85
2 25 7 65 9 90 3 25 8 62 11 84 4 21 8 48 9 60 16 120 110 532 153 671 53 171
132 396 150 430 6 11 12 25 13 30 15 66 184 419 298 620 70 123 255 416 304
480 5 6 46 60 92 121 126 169 332 421 395 485 9 9 52 56 96 104 91 101 455
467 591 595 50 47 144 135 209 195 65 61 148 137 184 171 61 57 137 126 200
183 43 39 243 224 271 251 53 51 137 119 215 172 79 55 381 238 392 238 5 0
141 81 698 413 240 143 554 325 685 396 110 60 484 247 550 275 25 11 86 37
135 58 50 21 98 43 107 48 10 6 23 10 30 10 7 1 31 9 53 20 22 11 47 19 56 20
8 0 19 4 25 9 25 23 580 189 688 205 21 4 41 8 45 10 3 2 22 7 41 10 19 3 60
10 90 16 30 6 64 13 75 15 38 7 230 34 285 40 30 3 70 8 88 11 18 2 72 6 120
10 48 3 114 7 147 9 70 5 389 5 655 0 199 -3 297 10 391 52 91 41 156 129 184
251 13 53 19 418 7 464 -3 15 -7 15 -39 2 -60 -26 -145 -20 -219 15 -53 25
-142 85 -164 112 -19 22 -177 142 -210 159 -57 29 -174 70 -196 69 -11 0 -46
-12 -79 -25z m-8095 -13021 c41 -47 96 -152 165 -318 56 -135 64 -154 101
-231 19 -39 50 -93 68 -122 19 -28 37 -56 41 -62 13 -21 -138 56 -192 98 -42
34 -90 104 -102 151 -6 20 -13 68 -16 106 -10 107 -48 209 -131 346 -19 31
-34 62 -34 68 0 6 13 11 29 11 22 0 39 -11 71 -47z m-245 -76 c15 -45 28 -89
30 -97 2 -9 14 -49 28 -90 28 -85 47 -150 43 -150 -2 0 -45 53 -96 118 -52 64
-111 136 -131 159 -34 37 -37 45 -29 73 12 41 28 60 65 76 45 19 61 3 90 -89z"/>
<path d="M14288 20825 c-2 -2 -80 -5 -173 -7 -155 -4 -174 -6 -218 -28 -62
-31 -132 -106 -163 -175 -26 -56 -32 -62 -50 -47 -15 15 -94 43 -138 50 -99
16 -447 1 -539 -23 -104 -27 -218 -120 -262 -212 -65 -137 -51 -301 37 -432
49 -72 195 -210 293 -277 87 -59 253 -147 325 -174 19 -7 49 -18 65 -26 93
-40 362 -104 500 -119 28 -3 70 -8 95 -11 25 -3 96 -7 158 -9 63 -2 119 -8
125 -13 7 -5 32 -21 57 -34 25 -14 117 -67 205 -118 88 -51 171 -99 185 -107
14 -8 37 -22 52 -31 15 -9 60 -37 100 -61 455 -275 1105 -716 1915 -1298 109
-79 317 -228 463 -333 564 -404 678 -481 729 -495 103 -27 220 3 430 111 80
41 152 74 161 74 14 0 16 -19 13 -167 -4 -296 37 -467 226 -944 121 -306 198
-406 429 -561 59 -39 134 -99 168 -132 64 -65 144 -175 144 -200 0 -8 4 -17 9
-21 14 -8 58 -149 71 -225 12 -68 15 -236 6 -304 -15 -105 -18 -125 -32 -181
-9 -33 -24 -86 -35 -118 l-19 -57 76 -152 c41 -84 100 -195 130 -248 71 -123
75 -129 101 -167 13 -17 23 -36 23 -40 0 -5 8 -18 18 -29 9 -10 35 -44 56 -74
120 -170 323 -383 427 -448 90 -57 101 -80 103 -211 2 -85 6 -115 24 -153 28
-60 74 -96 115 -92 46 6 87 37 141 108 l38 50 -7 -60 c-8 -82 -15 -143 -21
-184 -3 -19 -7 -57 -10 -85 -2 -27 -11 -102 -19 -166 -38 -307 -42 -718 -10
-889 20 -108 43 -176 42 -124 -1 29 10 189 18 254 5 48 14 133 20 205 5 50 23
198 41 340 6 46 16 112 29 190 3 17 10 59 15 95 6 36 17 97 25 135 8 39 16 82
19 96 10 57 97 399 122 479 32 103 76 231 98 282 21 50 21 49 -21 31 -61 -25
-94 -58 -173 -176 -77 -114 -123 -157 -170 -157 l-26 0 0 213 c-1 199 -10 526
-18 592 -2 17 -7 80 -11 140 -3 61 -8 121 -10 135 -3 14 -7 54 -10 90 -3 35
-8 85 -10 110 -3 25 -8 68 -11 95 -3 28 -12 102 -19 165 -8 63 -17 139 -20
169 -4 30 -8 61 -10 70 -1 9 -6 41 -9 71 -7 56 -11 91 -20 158 -3 20 -8 62
-12 92 -7 60 -9 73 -18 140 -10 68 -15 110 -22 169 -3 30 -7 62 -9 71 -2 9 -6
50 -10 91 -3 41 -10 90 -14 110 -5 20 -111 200 -237 400 -125 200 -242 387
-259 414 -16 28 -161 258 -320 512 -160 255 -294 471 -300 481 -5 9 -95 153
-200 320 -104 166 -194 310 -200 320 -5 10 -28 47 -51 82 -84 135 -349 559
-403 645 -89 144 -183 256 -396 471 -303 305 -608 545 -995 781 -256 156 -607
330 -865 430 -49 19 -103 41 -120 48 -78 35 -386 135 -581 191 -194 54 -340
85 -471 99 -32 4 -74 9 -93 12 -36 6 -827 13 -832 8z"/>
<path d="M11136 16698 c-69 -95 -198 -272 -287 -393 -243 -332 -315 -432 -474
-650 l-145 -200 215 -5 215 -5 -223 -335 c-481 -725 -707 -1069 -707 -1074 0
-3 97 -6 215 -6 l216 0 -49 -92 c-27 -51 -77 -147 -112 -213 -34 -66 -84 -160
-110 -210 -26 -49 -73 -139 -105 -200 -32 -60 -62 -117 -66 -125 -5 -8 -59
-112 -120 -230 -61 -118 -127 -244 -145 -279 -19 -35 -34 -67 -34 -70 0 -3
358 -6 795 -5 551 0 795 -3 798 -10 2 -6 3 -149 2 -318 l0 -308 245 0 246 0
-1 311 c0 171 2 314 5 318 3 4 355 7 782 7 428 0 780 3 783 6 3 3 -32 77 -78
164 -46 88 -119 227 -162 309 -74 144 -122 234 -225 430 -26 50 -76 144 -110
210 -35 66 -85 162 -112 213 l-49 92 219 0 220 0 -191 288 c-104 158 -300 454
-434 657 -135 204 -260 393 -279 420 l-35 50 216 3 215 2 -11 23 c-7 12 -24
38 -39 57 -24 32 -309 431 -406 571 -125 180 -528 746 -539 757 -10 11 -35
-18 -139 -160z"/>
<path d="M12020 11157 c-3 -2 -43 -7 -90 -11 -47 -3 -101 -8 -120 -11 -19 -3
-48 -7 -65 -9 -48 -7 -110 -18 -115 -21 -3 -2 -25 -6 -50 -10 -24 -4 -94 -22
-154 -40 -632 -192 -972 -600 -1044 -1255 -16 -143 -5 -849 13 -880 1 -3 6
-27 9 -55 4 -27 18 -93 31 -146 83 -332 226 -557 460 -725 91 -65 262 -150
380 -189 93 -32 85 -29 200 -55 126 -28 183 -37 370 -56 33 -3 209 -7 390 -8
280 -2 339 -5 390 -20 106 -31 181 -88 218 -166 19 -39 22 -62 22 -180 0 -120
-3 -141 -23 -185 -29 -62 -63 -98 -128 -135 -63 -37 -210 -76 -329 -88 -84 -9
-851 -7 -1015 2 -41 2 -147 7 -235 11 -88 3 -187 8 -220 10 -33 3 -100 7 -150
10 -107 5 -229 15 -267 21 -16 2 -29 1 -29 -3 -1 -5 -2 -259 -3 -566 -1 -488
1 -558 14 -562 44 -13 169 -44 195 -49 17 -2 64 -11 105 -20 41 -8 91 -17 110
-21 62 -11 413 -63 470 -69 30 -4 71 -9 90 -11 19 -3 67 -8 105 -11 39 -3 90
-7 115 -10 259 -22 875 -22 1010 1 14 2 54 6 89 9 35 4 73 8 85 11 11 2 39 7
61 10 132 17 316 59 444 101 40 13 76 28 171 71 133 60 342 243 431 378 67
101 142 259 165 345 42 162 59 247 70 345 3 33 8 71 11 85 9 44 12 672 3 750
-56 505 -294 881 -696 1102 -163 89 -380 150 -621 174 -32 3 -224 7 -428 9
-203 1 -389 5 -412 9 -118 19 -216 71 -266 142 -53 74 -66 131 -64 279 2 117
5 136 29 187 63 135 190 198 448 224 126 12 744 6 1055 -11 262 -14 479 -28
628 -40 l67 -6 0 565 c0 312 -3 566 -7 567 -9 1 -12 1 -133 29 -52 12 -140 30
-195 40 -55 11 -109 21 -120 23 -11 3 -54 10 -95 17 -41 6 -86 14 -100 16 -14
2 -61 9 -105 15 -44 5 -87 12 -95 14 -8 2 -49 7 -90 10 -41 4 -77 8 -80 10 -3
2 -45 6 -95 10 -49 4 -106 9 -125 12 -53 6 -684 15 -690 10z"/>
<path d="M8280 8393 l0 -2723 713 0 712 0 -2 2717 c-1 1495 -2 2721 -2 2724
-1 3 -320 6 -711 6 l-710 0 0 -2724z"/>
</g>
</svg>
